REM DIRINDEX 1\3,1\2\4,1\2\5
REM DIRNAME folder01,folder02,folder03,folder04,folder05
TITLE ""
FILE "III-2-08.mp3" MP3
  TRACK 01 AUDIO
    TITLE "0:"
    INDEX 01 00:00:00
  TRACK 02 AUDIO
    TITLE "3:cjc101_1458"
    INDEX 01 00:00:01
  TRACK 03 AUDIO
    TITLE "0:"
    INDEX 01 00:03:23
  TRACK 04 AUDIO
    TITLE "3:cjc101_1459"
    INDEX 01 00:03:68
  TRACK 05 AUDIO
    TITLE "0:"
    INDEX 01 00:06:41
